<svg width="500" height="100" viewBox="0 0 500 100" fill="none" xmlns="http://www.w3.org/2000/svg">
<path d="M50 0L61.2257 34.5491H97.5528L68.1636 55.9017L79.3893 90.4509L50 69.0983L20.6107 90.4509L31.8364 55.9017L2.44717 34.5491H38.7743L50 0Z" fill="#FF7F00"/>
<path d="M150 0L161.226 34.5491H197.553L168.164 55.9017L179.389 90.4509L150 69.0983L120.611 90.4509L131.836 55.9017L102.447 34.5491H138.774L150 0Z" fill="#FF7F00"/>
<path d="M250 0L261.226 34.5491H297.553L268.164 55.9017L279.389 90.4509L250 69.0983L220.611 90.4509L231.836 55.9017L202.447 34.5491H238.774L250 0Z" fill="#FF7F00"/>
<path d="M350 0L361.226 34.5491H397.553L368.164 55.9017L379.389 90.4509L350 69.0983L320.611 90.4509L331.836 55.9017L302.447 34.5491H338.774L350 0Z" fill="#FF7F00"/>
<path d="M450 8.09016L458.848 35.3217L459.409 37.0491H461.226H489.859L466.694 53.8792L465.225 54.9468L465.786 56.6742L474.634 83.9058L451.469 67.0758L450 66.0081L448.531 67.0758L425.366 83.9058L434.214 56.6742L434.775 54.9468L433.306 53.8792L410.141 37.0491H438.774H440.591L441.152 35.3217L450 8.09016Z" fill="white"/>
<path d="M450 8.09016L458.848 35.3217L459.409 37.0491H461.226H489.859L466.694 53.8792L465.225 54.9468L465.786 56.6742L474.634 83.9058L451.469 67.0758L450 66.0081L448.531 67.0758L425.366 83.9058L434.214 56.6742L434.775 54.9468L433.306 53.8792L410.141 37.0491H438.774H440.591L441.152 35.3217L450 8.09016Z" stroke="#FF7F00" stroke-width="5"/>
<path d="M450 8.09016L458.848 35.3217L459.409 37.0491H461.226H489.859L466.694 53.8792L465.225 54.9468L465.786 56.6742L474.634 83.9058L451.469 67.0758L450 66.0081L448.531 67.0758L425.366 83.9058L434.214 56.6742L434.775 54.9468L433.306 53.8792L410.141 37.0491H438.774H440.591L441.152 35.3217L450 8.09016Z" stroke="#FF7F00" stroke-opacity="0.2" stroke-width="5"/>
<path d="M450 8.09016L458.848 35.3217L459.409 37.0491H461.226H489.859L466.694 53.8792L465.225 54.9468L465.786 56.6742L474.634 83.9058L451.469 67.0758L450 66.0081L448.531 67.0758L425.366 83.9058L434.214 56.6742L434.775 54.9468L433.306 53.8792L410.141 37.0491H438.774H440.591L441.152 35.3217L450 8.09016Z" stroke="#FF7F00" stroke-opacity="0.2" stroke-width="5"/>
</svg>
